<?xml version="1.0" encoding="utf-8"?>
<!-- Generator: Adobe Illustrator 18.1.0, SVG Export Plug-In . SVG Version: 6.00 Build 0)  -->
<!DOCTYPE svg PUBLIC "-//W3C//DTD SVG 1.1//EN" "http://www.w3.org/Graphics/SVG/1.1/DTD/svg11.dtd">
<svg version="1.1" id="Layer_1" xmlns="http://www.w3.org/2000/svg" xmlns:xlink="http://www.w3.org/1999/xlink" x="0px" y="0px"
	 viewBox="0 0 485 58" enable-background="new 0 0 485 58" xml:space="preserve">
<g>
	<path fill="#FFFFFF" d="M73.5,33.9c-0.5-0.8-1.2-1.9-1.9-2.3c0.1,0,0.1-0.1,0.2-0.1c5.2-2.3,7.4-7,7.4-13.5
		c0-10.2-5.9-16.2-18.4-16.2h-15v54.1h10.3v-22H60c0.8,0,1.4,0.2,1.8,0.5c0.4,0.3,0.8,0.7,1.1,1.5L71.5,54c0.7,1.8,2,2.6,3.6,2.6
		h9.7L75,36.9C74.6,35.9,74,34.7,73.5,33.9z M61.5,25.3h-5.3v-15h5.3c4.6,0,7.3,2.2,7.3,7.5C68.8,23.1,66.1,25.3,61.5,25.3z"/>
	<g>
		<path fill="#FFFFFF" d="M205.2,47V33.2h-10.3v22.7h14.4c11.8,0,18.4-5.1,18.9-18.7v-4.7L205.2,47z"/>
	</g>
	<g>
		<path fill="#FFFFFF" d="M209.3,1.8h-14.4v21.6h10.3V9.5l23,14.6v-3.6C227.7,6.9,221.1,1.8,209.3,1.8z"/>
	</g>
	<path fill="#FFFFFF" d="M11.8,39.9c0,6,2.6,7.7,6.8,7.7c4.1,0,6.8-1.7,6.8-7.7v-4.8h10.4v3.4c0,13.4-7.1,18.2-17.2,18.2
		c-10.1,0-17.2-4.8-17.2-18.2V19.1C1.4,5.7,8.5,0.9,18.6,0.9c10.1,0,17.2,4.8,17.2,18.2v3.3H25.3v-4.6c0-6-2.6-7.7-6.8-7.7
		c-4.1,0-6.8,1.7-6.8,7.7V39.9z"/>
	<path fill="#FFFFFF" d="M88.5,19.1c0-13.4,7.1-18.2,17.2-18.2s17.2,4.8,17.2,18.2v19.4c0,13.4-7.1,18.2-17.2,18.2
		s-17.2-4.8-17.2-18.2V19.1z M98.8,39.9c0,6,2.6,7.7,6.8,7.7c4.1,0,6.8-1.7,6.8-7.7V17.8c0-6-2.6-7.7-6.8-7.7
		c-4.1,0-6.8,1.7-6.8,7.7V39.9z"/>
	<path fill="#FFFFFF" d="M128.1,1.6h9.6l7.3,35.5h0.2l7.5-35.5h10l7.5,35.5h0.2l7.2-35.5h9.7L175.4,56h-10l-7.6-37.2h-0.2L149.4,56
		h-9.9L128.1,1.6z"/>
	<path fill="#FFFFFF" d="M268.9,16.8c-1.7-5.1-4-7.3-7.6-7.3c-3.7,0-5.7,2.3-5.7,5.9c0,8.2,23.2,8.8,23.2,25.8
		c0,9.3-6.4,15.5-17.3,15.5c-8.4,0-15-4.6-17.8-15.3l10.2-2.2c1.2,6.6,5,8.9,8.1,8.9c3.6,0,6.4-2.4,6.4-6.5
		c0-10.2-23.2-10.4-23.2-25.6c0-9.3,5.6-15.2,16.3-15.2c9.3,0,14.9,5.5,16.7,13.2L268.9,16.8z"/>
	<path fill="#FFFFFF" d="M298.7,1.6v38c0,5.2,2.3,7.9,7.3,7.9c5,0,7.4-2.7,7.4-7.9v-38h10.4v38.1c0,12-7.1,17-17.8,17
		c-10.7,0-17.7-5-17.7-17V1.6H298.7z"/>
	<path fill="#FFFFFF" d="M335.3,56V1.6h15c12.8,0,19.1,6,19.1,16.3c0,10.2-6.2,16.3-19.1,16.3h-4.6V56H335.3z M345.7,25.6h5.6
		c5.1,0,7.7-2.6,7.7-7.7c0-5.1-2.6-7.7-7.7-7.7h-5.6V25.6z"/>
	<path fill="#FFFFFF" d="M376.9,56V1.6h15c12.8,0,19.1,6,19.1,16.3c0,10.2-6.2,16.3-19.1,16.3h-4.6V56H376.9z M387.3,25.6h5.6
		c5.1,0,7.7-2.6,7.7-7.7c0-5.1-2.6-7.7-7.7-7.7h-5.6V25.6z"/>
	<path fill="#FFFFFF" d="M419.9,56V1.6h10.4v45.2h16.7V56H419.9z"/>
	<path fill="#FFFFFF" d="M463.7,23.6l8.8-21.9h11.1L468.7,34v22h-10.4V34L443.5,1.6h11.1L463.7,23.6z"/>
</g>
</svg>
