<svg xmlns="http://www.w3.org/2000/svg" version="1.1" viewBox="25 39.48 591.9 221.03">
<g id="#000000ff">
<path fill="#000000" opacity="1.00" d=" M 39.28 40.37 C 42.10 39.52 45.08 39.48 48.00 39.48 C 103.98 39.57 159.96 39.38 215.93 39.57 C 227.05 39.60 235.46 50.39 235.23 61.03 C 235.26 120.34 235.26 179.66 235.23 238.97 C 235.43 249.92 226.36 260.78 214.98 260.48 C 158.33 260.52 101.68 260.52 45.03 260.48 C 34.05 260.87 24.92 250.69 25.00 240.02 C 25.00 180.01 25.00 119.99 25.00 59.98 C 25.13 51.37 30.97 42.95 39.28 40.37 M 54.73 81.16 C 54.34 128.36 54.36 175.63 54.72 222.83 C 64.72 222.64 74.73 222.82 84.74 222.74 C 84.80 183.52 84.68 144.29 84.79 105.07 C 95.83 143.50 103.74 183.73 113.90 222.77 C 124.42 222.67 134.94 222.88 145.45 222.66 C 154.73 184.55 164.20 146.48 173.47 108.37 C 173.90 107.12 173.80 105.40 175.17 104.74 C 175.36 144.07 175.18 183.40 175.26 222.74 C 185.27 222.81 195.28 222.64 205.29 222.83 C 205.64 175.63 205.66 128.36 205.28 81.17 C 189.69 81.41 174.11 81.09 158.52 81.33 C 149.23 118.65 139.88 155.96 130.55 193.27 C 120.27 156.15 111.44 118.57 101.74 81.27 C 86.07 81.17 70.40 81.37 54.73 81.16 Z"/>
<path fill="#000000" opacity="1.00" d=" M 363.36 99.46 C 371.84 98.07 381.31 99.19 388.02 104.98 C 400.62 115.77 401.86 136.80 391.73 149.64 C 381.31 162.73 358.70 162.91 348.12 149.92 C 334.51 134.01 341.13 103.28 363.36 99.46 M 364.35 110.50 C 353.34 115.17 352.30 130.45 356.82 140.08 C 360.80 149.95 376.41 150.90 381.94 142.02 C 386.78 134.31 386.52 123.80 382.07 115.97 C 378.61 109.91 370.56 108.45 364.35 110.50 Z"/>
<path fill="#000000" opacity="1.00" d=" M 474.60 100.58 C 487.07 95.62 508.97 100.86 506.94 117.59 C 503.03 117.44 499.13 117.50 495.23 117.54 C 494.52 109.32 484.41 106.23 477.95 109.92 C 474.78 111.62 473.84 116.78 476.99 118.94 C 485.30 123.54 495.84 122.55 503.58 128.38 C 512.36 134.87 511.08 150.34 501.57 155.54 C 487.23 164.17 460.45 159.40 460.28 139.17 C 464.45 138.90 468.62 138.99 472.79 139.01 C 473.00 149.46 486.96 152.39 494.28 147.31 C 497.97 144.76 497.02 138.76 492.98 137.11 C 483.96 132.95 472.34 133.51 465.26 125.69 C 458.30 116.93 463.98 103.08 474.60 100.58 Z"/>
<path fill="#000000" opacity="1.00" d=" M 271.77 100.01 C 277.79 100.02 283.82 99.91 289.84 100.09 C 294.50 112.77 297.94 126.20 303.62 138.33 C 307.73 125.55 312.02 112.82 316.09 100.03 C 322.06 99.97 328.02 100.00 333.99 100.01 C 333.98 119.26 334.06 138.52 333.95 157.78 C 329.98 157.74 326.02 157.74 322.05 157.78 C 321.82 144.66 322.25 131.53 321.84 118.42 C 316.65 131.31 312.78 144.72 307.93 157.76 C 304.63 157.75 301.32 157.75 298.02 157.78 C 292.97 144.63 289.07 131.00 283.74 117.99 C 283.75 131.24 283.78 144.48 283.73 157.72 C 279.73 157.78 275.74 157.80 271.75 157.68 C 271.77 138.46 271.72 119.24 271.77 100.01 Z"/>
<path fill="#000000" opacity="1.00" d=" M 405.43 100.14 C 409.80 99.91 414.19 99.92 418.57 100.13 C 418.53 113.06 418.30 126.01 418.67 138.93 C 418.42 151.36 441.23 152.28 441.61 139.69 C 441.97 126.47 441.61 113.24 441.77 100.01 C 446.11 99.99 450.44 99.96 454.78 100.05 C 454.53 113.80 455.15 127.59 454.46 141.31 C 452.14 166.11 407.49 165.91 405.74 140.93 C 405.13 127.35 405.76 113.73 405.43 100.14 Z"/>
<path fill="#000000" opacity="1.00" d=" M 515.43 100.14 C 529.94 99.82 544.46 100.08 558.98 100.01 C 559.03 103.60 559.02 107.19 558.94 110.78 C 548.81 110.73 538.68 110.74 528.55 110.77 C 528.46 114.85 528.47 118.92 528.54 123.00 C 537.88 123.08 547.23 122.82 556.57 123.13 C 556.48 126.38 556.48 129.62 556.57 132.86 C 547.23 133.18 537.88 132.91 528.54 133.00 C 528.47 137.66 528.47 142.33 528.54 147.00 C 538.95 147.04 549.36 146.93 559.77 147.05 C 559.76 150.61 559.75 154.17 559.73 157.74 C 544.98 157.73 530.23 157.81 515.47 157.70 C 515.48 138.51 515.58 119.32 515.43 100.14 Z"/>
<path fill="#000000" opacity="1.00" d=" M 567.01 99.77 C 579.23 100.10 591.59 98.99 603.72 100.36 C 617.16 103.45 619.40 124.54 606.80 130.18 C 617.58 135.51 612.50 149.01 616.90 157.83 C 612.58 157.72 608.27 157.74 603.96 157.77 C 601.26 151.12 603.90 142.76 599.03 137.02 C 593.46 133.45 586.26 135.58 580.01 135.01 C 579.95 142.60 580.08 150.19 579.94 157.78 C 575.65 157.74 571.35 157.74 567.05 157.78 C 566.94 138.44 567.02 119.11 567.01 99.77 M 579.88 110.23 C 579.62 115.56 579.77 120.89 579.78 126.22 C 585.49 126.05 591.28 126.76 596.93 125.79 C 603.88 124.30 603.97 112.38 597.07 110.83 C 591.43 109.66 585.60 110.50 579.88 110.23 Z"/>
<path fill="#000000" opacity="1.00" d=" M 476.37 169.47 C 487.28 166.78 497.37 177.99 494.51 188.62 C 493.34 199.88 478.40 204.91 469.98 198.06 C 459.97 190.52 463.38 171.51 476.37 169.47 M 477.35 174.45 C 466.56 177.21 468.76 198.21 481.00 196.21 C 493.50 194.66 490.66 170.80 477.35 174.45 Z"/>
<path fill="#000000" opacity="1.00" d=" M 590.86 180.03 C 588.79 166.07 614.19 165.89 614.72 179.05 C 612.84 179.13 610.96 179.30 609.09 179.24 C 608.60 172.64 595.89 171.81 596.63 178.94 C 600.58 183.69 607.89 181.88 612.67 185.26 C 616.73 188.79 615.51 196.37 610.68 198.70 C 602.91 202.87 589.35 200.66 588.98 189.95 C 590.87 189.84 592.77 189.65 594.68 189.82 C 594.94 197.36 608.72 198.94 609.63 191.33 C 606.09 184.20 593.18 188.83 590.86 180.03 Z"/>
<path fill="#000000" opacity="1.00" d=" M 272.01 170.01 C 279.67 169.99 287.34 169.99 295.01 170.01 C 294.99 171.67 294.99 173.33 295.00 174.99 C 289.34 175.03 283.67 174.97 278.01 175.01 C 277.99 177.49 277.99 179.98 277.99 182.46 C 283.20 182.54 288.42 182.50 293.63 182.47 C 293.67 183.95 293.77 185.44 293.86 186.93 C 288.58 187.08 283.29 186.96 278.01 187.01 C 277.99 189.82 277.98 192.64 278.00 195.46 C 283.65 195.52 289.30 195.56 294.95 195.41 C 295.12 197.01 295.29 198.61 295.30 200.23 C 287.54 200.27 279.77 200.27 272.01 200.23 C 271.99 190.15 271.99 180.08 272.01 170.01 Z"/>
<path fill="#000000" opacity="1.00" d=" M 303.77 169.95 C 305.70 170.01 307.64 170.06 309.57 170.13 C 309.44 178.57 309.49 187.02 309.53 195.47 C 314.90 195.53 320.27 195.51 325.64 195.47 C 325.67 197.01 325.76 198.56 325.85 200.11 C 318.50 200.41 311.13 200.21 303.78 200.22 C 303.73 190.13 303.74 180.04 303.77 169.95 Z"/>
<path fill="#000000" opacity="1.00" d=" M 333.22 170.05 C 340.90 169.94 348.57 170.01 356.25 170.01 C 356.23 171.67 356.23 173.33 356.25 174.99 C 350.50 175.03 344.75 174.97 339.01 175.01 C 338.99 177.49 338.99 179.98 338.99 182.46 C 344.20 182.54 349.42 182.50 354.63 182.47 C 354.68 183.95 354.76 185.44 354.86 186.93 C 349.58 187.08 344.29 186.96 339.01 187.01 C 338.99 189.82 338.98 192.64 339.00 195.46 C 344.80 195.56 350.62 195.44 356.43 195.53 C 356.50 196.99 356.56 198.46 356.62 199.93 C 348.85 200.58 341.02 200.22 333.23 200.12 C 333.26 190.10 333.27 180.07 333.22 170.05 Z"/>
<path fill="#000000" opacity="1.00" d=" M 370.15 172.17 C 377.59 167.26 390.62 170.17 392.00 180.04 C 390.10 180.24 388.19 180.35 386.30 180.07 C 384.60 173.42 374.45 172.46 371.17 178.25 C 368.03 183.83 368.45 193.09 375.11 195.90 C 380.11 198.14 385.84 194.50 386.48 189.20 C 388.25 189.24 390.02 189.27 391.80 189.30 C 391.78 199.00 380.59 204.44 372.27 200.76 C 360.82 196.45 359.74 178.23 370.15 172.17 Z"/>
<path fill="#000000" opacity="1.00" d=" M 397.75 170.01 C 406.35 170.06 414.96 169.84 423.56 170.14 C 423.55 171.71 423.55 173.29 423.56 174.87 C 420.22 175.00 416.88 175.07 413.54 174.99 C 413.49 183.31 413.44 191.64 413.58 199.96 C 411.65 200.17 409.71 200.36 407.78 200.26 C 407.72 191.85 407.74 183.45 407.78 175.05 C 404.43 175.02 401.09 174.96 397.75 174.99 C 397.76 173.33 397.76 171.67 397.75 170.01 Z"/>
<path fill="#000000" opacity="1.00" d=" M 431.47 170.35 C 438.25 170.46 445.23 169.49 451.89 171.09 C 458.35 172.92 458.40 182.65 453.01 185.84 C 457.85 189.32 455.26 195.78 457.62 200.53 C 453.27 201.43 449.85 200.06 451.17 195.03 C 452.15 186.69 442.41 188.18 437.05 188.23 C 436.96 192.36 437.09 196.49 436.86 200.61 C 435.07 200.55 433.30 200.48 431.53 200.44 C 431.44 190.41 431.56 180.38 431.47 170.35 M 436.79 174.79 C 436.65 177.78 436.74 180.77 436.89 183.76 C 440.63 183.58 444.47 184.21 448.15 183.33 C 452.36 182.27 451.31 174.90 447.02 174.88 C 443.62 174.54 440.20 174.80 436.79 174.79 Z"/>
<path fill="#000000" opacity="1.00" d=" M 503.22 170.05 C 505.30 170.19 507.66 169.47 509.56 170.44 C 514.35 177.15 518.17 184.58 523.40 190.95 C 523.59 184.01 523.51 177.07 523.43 170.13 C 525.36 170.06 527.29 170.01 529.23 169.95 C 529.26 180.05 529.27 190.15 529.22 200.24 C 527.15 200.24 525.09 200.23 523.03 200.23 C 518.28 193.20 514.04 185.80 508.86 179.08 C 508.62 186.09 508.79 193.11 508.78 200.13 C 506.92 200.22 505.07 200.26 503.23 200.13 C 503.26 190.10 503.27 180.08 503.22 170.05 Z"/>
<path fill="#000000" opacity="1.00" d=" M 539.43 170.12 C 541.28 170.07 543.13 170.01 544.99 169.95 C 545.01 180.05 545.01 190.16 544.99 200.27 C 543.11 200.35 541.26 200.16 539.42 199.95 C 539.56 190.01 539.54 180.07 539.43 170.12 Z"/>
<path fill="#000000" opacity="1.00" d=" M 560.99 172.00 C 568.41 167.31 581.49 170.31 582.45 180.23 C 580.63 180.23 578.81 180.23 577.00 180.25 C 575.16 173.39 564.68 172.34 561.48 178.58 C 558.61 184.31 559.16 193.59 566.07 196.08 C 571.17 197.99 576.18 194.22 577.29 189.25 C 578.90 189.24 580.51 189.22 582.13 189.22 C 582.66 199.49 569.88 204.85 561.68 200.24 C 551.04 195.13 550.72 177.67 560.99 172.00 Z"/>
</g>
</svg>