<?xml version="1.0" encoding="UTF-8" ?>
<!DOCTYPE svg PUBLIC "-//W3C//DTD SVG 1.1//EN" "http://www.w3.org/Graphics/SVG/1.1/DTD/svg11.dtd">
<svg width="1537pt" height="666pt" viewBox="0 0 1537 666" version="1.1" xmlns="http://www.w3.org/2000/svg">
<g id="#ffffffff">
</g>
<g id="#000000ff">
<path fill="#000000" opacity="1.00" d=" M 623.45 0.00 L 645.25 0.00 C 645.82 0.45 646.96 1.34 647.53 1.78 C 661.58 3.64 673.71 11.72 684.14 20.87 C 697.40 32.84 711.01 48.94 709.02 68.03 C 708.15 81.59 697.45 91.87 686.40 98.40 C 639.43 130.98 592.69 163.90 545.67 196.41 C 562.78 243.18 584.03 288.50 601.80 335.06 C 605.05 396.23 607.25 457.47 610.76 518.59 C 607.77 524.39 602.54 528.50 598.48 533.48 C 578.10 552.98 554.08 568.83 528.37 580.34 C 527.93 580.68 527.06 581.36 526.62 581.70 C 524.22 582.46 521.90 583.47 519.56 584.39 C 491.75 596.62 461.71 603.50 431.48 606.13 C 418.39 626.45 404.85 648.48 382.47 659.64 C 377.04 661.97 371.39 663.70 365.96 666.00 L 348.57 666.00 C 348.08 665.54 347.09 664.63 346.59 664.18 C 338.94 663.50 332.02 659.83 325.01 656.96 C 308.38 647.67 291.16 638.11 278.99 623.05 C 274.43 615.90 270.19 607.75 270.97 599.01 C 269.39 580.09 282.10 563.37 296.63 552.70 C 308.15 543.46 320.34 534.98 331.37 525.18 C 317.03 507.78 301.04 491.77 286.25 474.75 C 276.95 467.32 275.39 454.93 270.04 444.97 C 258.22 415.30 245.60 385.96 233.64 356.34 C 229.02 347.79 227.25 337.83 221.74 329.79 C 161.29 341.14 100.56 351.21 40.03 362.04 C 17.55 364.08 1.24 342.68 0.00 321.95 L 0.00 300.31 C 0.98 275.05 16.70 252.28 38.57 240.11 C 39.07 240.07 40.08 239.99 40.59 239.94 C 41.02 239.53 41.89 238.71 42.32 238.29 C 78.61 221.55 120.87 226.86 156.62 242.30 C 157.06 242.64 157.93 243.33 158.37 243.67 C 180.57 253.48 200.87 267.99 217.76 285.42 C 221.81 284.48 221.67 279.53 223.41 276.47 C 244.46 227.69 289.63 195.22 334.63 170.16 C 335.13 170.10 336.14 170.00 336.64 169.95 C 337.07 169.47 337.94 168.49 338.37 168.01 C 338.93 168.00 340.04 167.99 340.59 167.98 C 341.02 167.55 341.87 166.68 342.30 166.24 C 376.09 155.21 411.35 147.66 446.99 147.98 C 471.15 148.06 494.80 154.21 516.97 163.33 C 516.31 105.39 540.32 43.24 591.54 12.15 C 592.00 12.07 592.93 11.89 593.40 11.80 C 601.88 6.52 611.71 3.08 621.64 1.83 C 622.09 1.38 623.00 0.46 623.45 0.00 M 627.34 30.77 C 626.44 30.92 625.54 31.08 624.66 31.24 C 621.88 32.15 618.82 31.99 616.40 33.86 C 615.93 33.92 614.99 34.03 614.53 34.09 C 613.49 34.70 612.47 35.31 611.45 35.93 C 610.98 35.97 610.05 36.06 609.58 36.10 C 601.24 41.03 593.44 46.70 586.45 53.44 C 579.08 61.11 573.02 69.79 567.08 78.57 C 567.04 79.03 566.95 79.95 566.91 80.41 C 564.11 83.98 562.13 88.20 560.75 92.51 C 560.20 93.53 559.66 94.55 559.10 95.56 C 559.06 96.04 558.97 97.00 558.92 97.47 C 558.30 98.49 557.68 99.51 557.07 100.53 C 557.03 101.02 556.97 101.98 556.93 102.47 C 556.30 103.50 555.68 104.53 555.06 105.55 C 555.00 106.50 554.94 107.45 554.88 108.40 C 554.26 109.78 553.75 111.20 553.16 112.59 C 553.02 113.51 552.90 114.42 552.79 115.35 C 552.35 116.67 551.95 118.01 551.63 119.37 C 551.15 121.46 550.92 123.61 550.24 125.66 C 550.07 126.55 549.92 127.45 549.77 128.34 C 548.12 131.24 549.93 134.82 548.15 137.67 C 547.89 140.02 548.45 142.57 547.12 144.68 C 546.89 149.12 547.03 153.57 547.01 158.02 C 547.61 158.01 548.82 157.98 549.43 157.96 C 592.25 126.99 636.56 98.00 679.05 66.63 C 680.41 57.97 672.90 52.01 667.77 46.22 C 660.87 40.12 653.66 33.25 644.36 31.24 C 643.45 31.08 642.55 30.93 641.65 30.77 C 637.13 29.49 631.86 29.49 627.34 30.77 M 439.68 180.10 C 435.02 182.13 429.63 180.38 424.68 181.12 C 421.22 183.25 416.82 180.77 413.34 182.84 C 411.78 182.95 410.22 183.04 408.66 183.16 C 406.10 184.72 402.93 183.32 400.34 184.77 C 399.44 184.92 398.55 185.07 397.66 185.23 C 395.37 186.25 392.79 185.87 390.42 186.56 C 389.40 186.98 388.40 187.42 387.40 187.87 C 386.12 187.96 384.85 188.03 383.58 188.12 C 382.22 188.77 380.78 189.24 379.42 189.87 C 378.14 189.96 376.87 190.05 375.60 190.15 C 374.22 190.72 372.82 191.20 371.45 191.78 C 368.12 191.96 365.17 193.69 362.61 195.70 C 363.39 196.96 364.15 198.25 364.93 199.52 C 364.97 200.00 365.06 200.96 365.10 201.44 C 365.66 202.45 366.21 203.47 366.75 204.49 C 367.64 208.40 370.35 211.60 371.25 215.51 C 371.78 216.53 372.33 217.55 372.90 218.56 C 372.94 219.04 373.03 220.00 373.08 220.47 C 373.69 221.49 374.31 222.51 374.93 223.53 C 374.97 224.02 375.04 224.99 375.07 225.47 C 375.68 226.49 376.30 227.50 376.92 228.53 C 376.97 229.00 377.06 229.96 377.10 230.44 C 377.66 231.45 378.21 232.47 378.75 233.49 C 379.64 237.40 382.35 240.59 383.25 244.51 C 383.78 245.53 384.33 246.54 384.90 247.56 C 384.94 248.04 385.03 249.00 385.08 249.47 C 385.69 250.49 386.31 251.51 386.93 252.53 C 386.97 253.02 387.03 253.99 387.07 254.47 C 387.68 255.49 388.30 256.50 388.92 257.53 C 388.97 258.01 389.06 258.96 389.10 259.44 C 389.66 260.45 390.21 261.47 390.74 262.50 C 392.51 267.98 395.49 273.02 397.26 278.51 C 397.79 279.53 398.33 280.55 398.90 281.56 C 398.94 282.04 399.03 283.00 399.08 283.47 C 399.69 284.49 400.30 285.51 400.92 286.53 C 400.97 287.00 401.06 287.96 401.10 288.44 C 401.66 289.45 402.20 290.47 402.74 291.49 C 404.51 296.98 407.49 302.02 409.26 307.50 C 409.79 308.53 410.33 309.55 410.90 310.56 C 410.94 311.04 411.03 312.00 411.08 312.47 C 411.69 313.49 412.31 314.51 412.93 315.53 C 412.96 316.01 413.03 316.98 413.07 317.47 C 413.68 318.48 414.30 319.50 414.92 320.53 C 414.97 321.00 415.06 321.96 415.10 322.44 C 415.66 323.45 416.21 324.46 416.75 325.49 C 417.64 329.40 420.35 332.60 421.25 336.51 C 421.78 337.53 422.33 338.55 422.90 339.56 C 422.94 340.04 423.03 341.00 423.08 341.47 C 423.69 342.49 424.31 343.51 424.93 344.53 C 424.97 345.02 425.03 345.98 425.07 346.47 C 425.68 347.48 426.30 348.50 426.92 349.53 C 426.97 350.01 427.06 350.96 427.10 351.44 C 427.66 352.45 428.21 353.47 428.75 354.49 C 429.64 358.40 432.35 361.60 433.25 365.51 C 433.78 366.53 434.33 367.54 434.90 368.56 C 434.94 369.04 435.03 370.00 435.08 370.47 C 435.69 371.49 436.31 372.51 436.93 373.53 C 436.97 374.01 437.04 374.98 437.07 375.47 C 437.68 376.48 438.29 377.50 438.91 378.52 C 438.97 378.99 439.10 379.92 439.16 380.38 C 441.10 385.13 443.63 389.65 445.25 394.51 C 445.78 395.53 446.33 396.54 446.90 397.56 C 446.94 398.04 447.03 399.00 447.08 399.47 C 447.69 400.49 448.31 401.51 448.93 402.53 C 448.97 403.02 449.03 403.98 449.07 404.47 C 449.68 405.48 450.30 406.50 450.92 407.53 C 450.97 408.00 451.06 408.96 451.10 409.44 C 451.66 410.45 452.21 411.46 452.75 412.49 C 453.57 415.74 455.30 418.65 456.89 421.57 C 456.94 422.04 457.03 423.00 457.08 423.48 C 457.83 424.73 458.57 425.99 459.34 427.24 C 461.07 426.79 462.77 426.25 464.50 425.82 C 465.53 425.24 466.56 424.66 467.59 424.07 C 468.52 424.01 469.45 423.95 470.40 423.87 C 471.78 423.26 473.21 422.75 474.59 422.13 C 475.52 422.04 476.46 421.95 477.40 421.86 C 478.78 421.26 480.20 420.74 481.60 420.16 C 482.50 420.02 483.42 419.90 484.35 419.79 C 485.67 419.35 487.01 418.95 488.37 418.63 C 490.46 418.15 492.61 417.92 494.66 417.24 C 495.54 417.08 496.44 416.92 497.34 416.76 C 499.64 415.60 502.37 416.42 504.66 415.19 C 505.88 415.05 507.11 414.93 508.35 414.81 C 510.80 413.47 513.66 414.15 516.32 413.87 C 518.55 412.42 521.44 413.58 523.68 412.11 C 527.64 411.52 531.98 412.97 535.67 411.11 C 539.97 410.47 544.65 412.02 548.68 410.12 C 556.78 409.85 564.89 410.07 573.00 410.00 C 572.96 405.56 573.11 401.11 572.88 396.68 C 570.84 391.34 572.65 385.29 571.88 379.68 C 569.76 371.68 571.72 362.95 570.88 354.67 C 568.68 349.60 571.28 343.64 568.83 338.50 C 568.25 337.47 567.67 336.46 567.08 335.45 C 567.05 334.97 566.97 334.01 566.93 333.53 C 566.30 332.50 565.68 331.48 565.07 330.47 C 565.03 329.98 564.97 329.02 564.93 328.53 C 564.31 327.51 563.69 326.49 563.08 325.47 C 563.03 325.00 562.94 324.04 562.90 323.56 C 562.33 322.55 561.78 321.53 561.25 320.51 C 560.35 316.60 557.64 313.40 556.75 309.49 C 556.21 308.47 555.66 307.45 555.10 306.44 C 555.06 305.96 554.97 305.00 554.92 304.53 C 554.30 303.50 553.68 302.48 553.07 301.47 C 553.03 300.99 552.97 300.02 552.93 299.53 C 552.31 298.51 551.69 297.49 551.08 296.48 C 551.03 296.00 550.94 295.04 550.90 294.56 C 550.33 293.55 549.78 292.53 549.25 291.51 C 548.35 287.60 545.64 284.40 544.75 280.49 C 544.21 279.47 543.66 278.45 543.10 277.44 C 543.06 276.96 542.97 276.00 542.92 275.53 C 542.30 274.50 541.68 273.49 541.07 272.47 C 541.03 271.99 540.97 271.02 540.93 270.53 C 540.31 269.51 539.69 268.49 539.08 267.47 C 539.03 267.00 538.94 266.04 538.90 265.56 C 538.33 264.55 537.78 263.53 537.25 262.51 C 536.35 258.60 533.64 255.40 532.75 251.49 C 532.21 250.47 531.66 249.45 531.10 248.44 C 531.06 247.96 530.97 247.00 530.92 246.53 C 530.30 245.50 529.68 244.49 529.07 243.47 C 529.03 242.98 528.97 242.01 528.93 241.53 C 528.30 240.51 527.68 239.49 527.07 238.47 C 527.03 237.99 526.97 237.02 526.93 236.53 C 526.31 235.51 525.69 234.49 525.08 233.47 C 525.03 233.00 524.94 232.04 524.90 231.56 C 524.33 230.55 523.78 229.53 523.25 228.51 C 522.35 224.60 519.64 221.40 518.75 217.49 C 518.21 216.47 517.66 215.45 517.10 214.44 C 517.06 213.96 516.97 213.00 516.92 212.53 C 516.30 211.50 515.68 210.49 515.07 209.47 C 515.03 208.98 514.97 208.01 514.93 207.53 C 514.30 206.50 513.68 205.48 513.05 204.46 C 513.04 203.97 513.00 202.97 512.98 202.48 C 509.16 195.66 501.49 192.36 494.52 189.73 C 493.50 189.23 492.48 188.74 491.47 188.24 C 489.40 187.66 487.36 186.98 485.38 186.19 C 484.45 186.07 483.52 185.95 482.60 185.84 C 481.59 185.40 480.58 184.98 479.57 184.57 C 477.20 183.84 474.60 184.31 472.34 183.19 C 471.10 183.05 469.88 182.94 468.66 182.81 C 465.47 180.91 461.46 183.13 458.32 181.11 C 454.03 180.46 449.32 182.05 445.32 180.10 C 443.44 180.00 441.55 180.01 439.68 180.10 M 338.35 206.27 C 304.72 225.25 272.92 250.56 255.06 285.57 C 255.04 286.08 255.00 287.09 254.98 287.59 C 254.54 288.03 253.65 288.90 253.20 289.33 C 252.71 291.48 252.02 293.58 251.19 295.63 C 251.07 296.54 250.95 297.47 250.84 298.39 C 250.40 299.39 249.98 300.40 249.58 301.42 C 247.90 305.89 249.51 310.38 251.26 314.51 C 251.80 315.54 252.35 316.57 252.93 317.60 C 252.95 318.10 252.99 319.12 253.01 319.63 C 253.51 320.07 254.50 320.94 255.00 321.38 C 255.01 321.89 255.03 322.92 255.04 323.44 C 255.67 324.47 256.30 325.49 256.94 326.53 C 256.97 327.01 257.03 327.98 257.07 328.47 C 257.69 329.49 258.31 330.51 258.93 331.53 C 258.97 332.01 259.03 332.99 259.07 333.47 C 259.69 334.49 260.31 335.51 260.93 336.53 C 260.97 337.01 261.03 337.99 261.07 338.47 C 261.69 339.49 262.31 340.51 262.93 341.53 C 262.97 342.02 263.03 342.99 263.06 343.47 C 263.69 344.50 264.33 345.53 264.96 346.56 C 264.97 347.08 264.99 348.11 265.00 348.63 C 265.50 349.06 266.50 349.94 267.00 350.37 C 267.01 350.89 267.03 351.92 267.04 352.44 C 267.67 353.47 268.30 354.49 268.94 355.53 C 268.97 356.01 269.03 356.98 269.07 357.47 C 269.69 358.49 270.31 359.51 270.93 360.53 C 270.97 361.02 271.03 361.99 271.07 362.47 C 271.69 363.49 272.31 364.51 272.93 365.53 C 272.97 366.02 273.04 366.99 273.07 367.47 C 273.68 368.48 274.30 369.50 274.92 370.52 C 274.97 371.00 275.06 371.96 275.10 372.44 C 275.66 373.45 276.21 374.47 276.75 375.49 C 277.65 379.40 280.35 382.60 281.25 386.51 C 281.78 387.53 282.33 388.54 282.90 389.56 C 282.94 390.04 283.03 391.00 283.08 391.47 C 283.69 392.49 284.31 393.51 284.93 394.53 C 284.97 395.02 285.03 395.98 285.07 396.47 C 285.68 397.48 286.30 398.50 286.92 399.53 C 286.97 400.00 287.06 400.96 287.10 401.44 C 287.66 402.45 288.21 403.46 288.75 404.49 C 289.65 408.40 292.35 411.60 293.25 415.51 C 293.78 416.53 294.33 417.54 294.90 418.56 C 294.94 419.04 295.03 420.00 295.08 420.47 C 295.69 421.49 296.31 422.51 296.93 423.53 C 296.97 424.02 297.03 424.98 297.07 425.47 C 297.68 426.48 298.30 427.50 298.92 428.53 C 298.97 429.00 299.06 429.96 299.10 430.44 C 299.66 431.45 300.21 432.46 300.75 433.49 C 301.64 437.40 304.36 440.59 305.25 444.51 C 305.79 445.54 306.35 446.56 306.92 447.59 C 306.95 448.09 307.00 449.09 307.02 449.59 C 314.02 456.09 319.82 463.65 326.49 470.48 C 332.79 477.54 339.21 484.45 345.51 491.52 C 348.07 494.44 350.68 497.33 353.47 500.05 C 354.81 498.86 356.22 497.74 357.52 496.51 C 359.80 494.13 362.19 491.87 364.48 489.49 C 388.21 466.58 415.25 446.92 445.14 432.80 C 445.44 429.46 443.80 426.57 442.67 423.57 C 441.01 418.74 438.29 414.35 436.75 409.50 C 436.21 408.47 435.66 407.45 435.10 406.44 C 435.06 405.96 434.97 405.00 434.92 404.53 C 434.30 403.50 433.68 402.48 433.07 401.47 C 433.04 400.99 432.97 400.02 432.93 399.53 C 432.31 398.51 431.69 397.49 431.08 396.47 C 431.03 396.00 430.94 395.04 430.90 394.56 C 430.33 393.54 429.78 392.53 429.25 391.51 C 428.35 387.59 425.64 384.40 424.75 380.49 C 424.21 379.47 423.66 378.45 423.10 377.44 C 423.06 376.96 422.97 376.00 422.92 375.53 C 422.30 374.50 421.68 373.48 421.07 372.47 C 421.03 371.99 420.96 371.02 420.93 370.53 C 420.31 369.51 419.70 368.49 419.09 367.48 C 419.03 367.01 418.90 366.08 418.84 365.62 C 416.90 360.87 414.37 356.35 412.75 351.49 C 412.21 350.47 411.66 349.45 411.10 348.44 C 411.06 347.96 410.97 347.00 410.92 346.53 C 410.30 345.50 409.68 344.48 409.07 343.47 C 409.04 342.99 408.97 342.01 408.93 341.53 C 408.31 340.51 407.68 339.49 407.07 338.47 C 407.03 337.99 406.97 337.01 406.93 336.53 C 406.31 335.51 405.68 334.49 405.07 333.47 C 405.03 332.98 404.97 332.01 404.94 331.53 C 404.30 330.49 403.67 329.47 403.04 328.44 C 403.03 327.92 403.01 326.89 403.00 326.37 C 402.50 325.94 401.50 325.06 401.00 324.62 C 400.99 324.11 400.97 323.08 400.96 322.56 C 400.32 321.53 399.69 320.50 399.06 319.47 C 399.03 318.99 398.97 318.01 398.93 317.53 C 398.31 316.51 397.68 315.49 397.07 314.47 C 397.03 313.98 396.97 313.01 396.93 312.53 C 396.31 311.51 395.68 310.49 395.07 309.47 C 395.03 308.99 394.97 308.01 394.93 307.53 C 394.31 306.51 393.68 305.49 393.07 304.47 C 393.03 303.98 392.97 303.01 392.94 302.53 C 392.30 301.49 391.67 300.47 391.04 299.44 C 391.03 298.92 391.01 297.89 391.00 297.37 C 390.50 296.94 389.50 296.06 389.00 295.63 C 388.99 295.11 388.97 294.08 388.96 293.56 C 388.32 292.53 387.69 291.50 387.06 290.47 C 387.03 289.99 386.97 289.02 386.93 288.53 C 386.31 287.51 385.69 286.49 385.07 285.47 C 385.03 284.99 384.97 284.02 384.93 283.53 C 384.31 282.51 383.68 281.49 383.07 280.47 C 383.03 279.99 382.97 279.01 382.93 278.53 C 382.31 277.51 381.68 276.49 381.07 275.47 C 381.03 274.98 380.97 274.01 380.94 273.53 C 380.30 272.49 379.67 271.46 379.04 270.44 C 379.03 269.92 379.01 268.89 379.00 268.37 C 378.50 267.94 377.50 267.06 377.00 266.63 C 376.99 266.11 376.97 265.08 376.96 264.56 C 376.33 263.53 375.69 262.50 375.06 261.47 C 375.03 260.99 374.97 260.02 374.93 259.53 C 374.31 258.51 373.69 257.49 373.07 256.47 C 373.03 255.99 372.97 255.01 372.93 254.53 C 372.31 253.51 371.69 252.49 371.07 251.47 C 371.03 250.99 370.97 250.02 370.93 249.53 C 370.31 248.51 369.69 247.49 369.08 246.47 C 369.03 246.00 368.94 245.04 368.90 244.56 C 368.33 243.55 367.78 242.53 367.25 241.51 C 366.35 237.60 363.64 234.40 362.75 230.49 C 362.21 229.47 361.66 228.45 361.10 227.44 C 361.06 226.96 360.97 226.01 360.92 225.53 C 360.30 224.50 359.68 223.49 359.07 222.47 C 359.03 221.98 358.97 221.01 358.93 220.53 C 358.31 219.51 357.69 218.49 357.08 217.47 C 357.03 217.00 356.94 216.04 356.90 215.56 C 356.33 214.55 355.78 213.53 355.25 212.51 C 354.42 209.25 352.70 206.33 351.09 203.41 C 351.05 202.77 350.97 201.48 350.92 200.83 C 346.14 200.82 342.35 204.10 338.35 206.27 M 76.34 258.78 C 75.45 258.92 74.55 259.07 73.66 259.23 C 72.06 259.96 70.31 260.05 68.59 260.21 C 65.61 261.34 62.60 262.38 59.53 263.22 C 48.52 267.81 38.38 275.52 33.21 286.52 C 32.76 288.18 32.21 289.81 31.67 291.44 C 30.91 293.32 30.99 295.36 30.81 297.35 C 29.46 304.80 29.44 313.21 30.82 320.66 C 29.97 326.53 34.98 334.90 41.65 331.21 C 42.55 331.06 43.44 330.92 44.34 330.78 C 46.94 329.33 50.09 330.69 52.66 329.19 C 53.89 329.05 55.11 328.94 56.34 328.81 C 58.91 327.30 62.06 328.67 64.66 327.23 C 65.55 327.07 66.45 326.92 67.34 326.77 C 69.94 325.33 73.09 326.69 75.67 325.19 C 76.89 325.05 78.11 324.94 79.34 324.81 C 81.91 323.31 85.06 324.66 87.66 323.23 C 88.55 323.07 89.45 322.92 90.34 322.77 C 92.94 321.35 96.06 322.65 98.66 321.23 C 99.55 321.07 100.45 320.92 101.34 320.77 C 103.94 319.33 107.09 320.69 109.66 319.19 C 110.89 319.05 112.11 318.94 113.34 318.81 C 115.91 317.31 119.06 318.66 121.66 317.23 C 122.55 317.07 123.44 316.92 124.34 316.77 C 126.94 315.35 130.06 316.64 132.66 315.23 C 133.55 315.07 134.44 314.92 135.34 314.77 C 137.93 313.32 141.09 314.70 143.66 313.19 C 144.88 313.05 146.11 312.94 147.34 312.81 C 149.91 311.30 153.06 312.67 155.66 311.23 C 156.55 311.07 157.44 310.92 158.34 310.77 C 160.93 309.33 164.08 310.69 166.66 309.19 C 167.88 309.05 169.11 308.94 170.34 308.81 C 172.91 307.31 176.06 308.67 178.66 307.23 C 179.55 307.07 180.44 306.92 181.34 306.77 C 183.94 305.31 187.11 306.73 189.67 305.16 C 190.78 305.07 191.88 304.99 193.00 304.93 C 193.00 304.30 193.01 303.04 193.02 302.42 C 181.39 291.40 168.11 282.23 154.39 274.06 C 153.89 274.04 152.89 274.01 152.38 273.99 C 151.94 273.49 151.05 272.49 150.61 271.99 C 150.05 272.00 148.94 272.01 148.39 272.01 C 147.95 271.51 147.07 270.50 146.62 270.00 C 146.11 269.99 145.08 269.97 144.56 269.96 C 143.53 269.33 142.50 268.69 141.47 268.06 C 140.99 268.03 140.02 267.97 139.53 267.93 C 138.51 267.31 137.49 266.69 136.47 266.07 C 135.98 266.03 135.01 265.97 134.53 265.93 C 133.50 265.30 132.47 264.67 131.44 264.05 C 130.50 264.00 129.57 263.96 128.64 263.91 C 126.55 262.43 124.13 261.75 121.59 261.82 C 120.59 261.39 119.58 260.97 118.58 260.57 C 116.21 259.83 113.60 260.31 111.34 259.19 C 110.11 259.05 108.88 258.94 107.65 258.81 C 97.54 257.43 86.49 257.50 76.34 258.78 M 546.67 423.12 C 541.67 425.14 535.96 423.37 530.67 424.12 C 528.14 425.84 524.84 424.16 522.32 425.89 C 519.33 426.23 516.11 425.36 513.34 426.81 C 512.11 426.93 510.88 427.05 509.66 427.19 C 507.09 428.69 503.94 427.33 501.34 428.77 C 500.44 428.92 499.54 429.07 498.66 429.24 C 496.61 429.98 494.39 430.01 492.34 430.76 C 491.44 430.91 490.55 431.08 489.66 431.24 C 488.32 431.72 486.95 432.01 485.57 432.24 C 484.17 432.78 482.77 433.28 481.39 433.84 C 480.45 433.93 479.52 434.03 478.59 434.14 C 477.20 434.75 475.78 435.26 474.40 435.87 C 473.45 435.95 472.51 436.01 471.58 436.07 C 470.55 436.66 469.53 437.24 468.50 437.82 C 466.83 438.24 465.18 438.76 463.52 439.20 C 459.89 440.96 456.42 443.20 452.49 444.25 C 451.45 444.79 450.42 445.35 449.41 445.93 C 448.90 445.95 447.88 445.99 447.37 446.01 C 446.93 446.51 446.05 447.50 445.61 447.99 C 445.11 448.01 444.11 448.04 443.60 448.06 C 413.82 464.46 385.77 485.16 363.08 510.52 C 376.16 525.88 390.24 540.32 403.51 555.52 C 411.26 561.53 415.56 575.32 427.33 572.89 C 431.67 570.92 436.70 572.57 441.32 571.88 C 443.13 570.72 445.30 571.03 447.33 570.82 C 449.90 569.30 453.06 570.66 455.66 569.23 C 456.55 569.07 457.44 568.91 458.34 568.76 C 460.38 568.07 462.54 567.85 464.63 567.37 C 465.99 567.04 467.32 566.63 468.65 566.21 C 469.56 566.08 470.48 565.96 471.40 565.83 C 472.78 565.26 474.19 564.74 475.57 564.17 C 478.12 564.23 480.55 563.58 482.64 562.09 C 483.57 562.03 484.50 561.99 485.44 561.95 C 486.48 561.31 487.51 560.67 488.56 560.04 C 489.51 560.00 490.47 559.98 491.44 559.96 C 492.46 559.32 493.49 558.69 494.53 558.06 C 495.01 558.03 495.99 557.97 496.47 557.94 C 497.50 557.30 498.53 556.66 499.56 556.04 C 500.51 556.00 501.47 555.98 502.44 555.96 C 503.46 555.32 504.49 554.69 505.53 554.06 C 506.01 554.03 506.99 553.97 507.47 553.94 C 508.50 553.30 509.53 552.66 510.56 552.04 C 511.08 552.03 512.11 552.01 512.62 552.00 C 513.06 551.50 513.93 550.51 514.37 550.01 C 514.88 549.99 515.89 549.94 516.40 549.92 C 538.39 539.03 559.29 525.60 577.00 508.55 C 576.41 499.20 578.17 489.39 576.12 480.32 C 575.34 474.70 577.16 468.66 575.12 463.32 C 574.78 455.44 575.22 447.55 574.88 439.68 C 572.48 434.46 575.60 428.19 572.79 422.99 C 564.08 423.09 555.37 422.84 546.67 423.12 M 308.39 580.40 C 301.71 586.77 296.13 597.82 302.79 606.19 C 313.95 618.17 328.65 626.71 343.50 633.25 C 344.54 633.78 345.57 634.33 346.60 634.90 C 347.50 634.98 348.42 635.08 349.34 635.19 C 350.90 635.97 352.65 636.03 354.35 636.24 C 356.28 637.31 358.75 637.39 360.65 636.18 C 361.88 636.04 363.12 635.93 364.37 635.82 C 365.40 635.44 366.43 635.08 367.48 634.75 C 381.33 628.32 390.43 615.53 398.95 603.40 C 398.97 602.92 399.00 601.95 399.02 601.46 C 395.39 597.93 391.70 594.43 388.55 590.45 C 373.59 578.36 361.66 563.07 347.56 549.94 C 334.35 559.89 321.50 570.32 308.39 580.40 Z" />
<path fill="#000000" opacity="1.00" d=" M 379.39 203.98 C 381.10 203.99 382.82 203.99 384.54 204.00 C 385.69 205.17 386.85 206.33 388.04 207.47 C 390.00 213.51 382.99 220.33 377.75 215.26 C 373.04 212.06 375.73 206.69 379.39 203.98 Z" />
<path fill="#000000" opacity="1.00" d=" M 394.57 242.11 C 385.95 244.51 382.37 230.67 391.15 228.99 C 398.87 228.50 401.34 238.51 394.57 242.11 Z" />
<path fill="#000000" opacity="1.00" d=" M 399.46 254.00 C 401.54 254.00 403.62 253.99 405.70 253.96 C 412.63 258.75 407.02 268.44 399.32 266.09 C 397.03 263.78 395.47 260.82 395.92 257.49 C 397.12 256.35 398.30 255.18 399.46 254.00 Z" />
<path fill="#000000" opacity="1.00" d=" M 868.99 257.99 C 868.69 256.64 869.66 254.95 871.16 255.02 C 883.03 254.95 894.91 255.04 906.79 254.99 C 909.53 266.81 907.25 279.41 908.00 291.55 C 907.17 292.36 906.35 293.17 905.55 294.00 C 893.41 293.25 880.81 295.53 868.99 292.79 C 869.01 281.19 868.99 269.59 868.99 257.99 Z" />
<path fill="#000000" opacity="1.00" d=" M 1236.09 256.38 C 1242.98 253.16 1252.20 255.91 1260.00 255.00 C 1263.85 255.68 1268.93 253.43 1271.91 256.38 C 1272.06 327.79 1272.06 399.22 1271.91 470.62 C 1261.46 473.86 1248.66 471.07 1237.31 472.00 C 1236.99 470.74 1236.59 469.51 1236.12 468.32 C 1235.39 465.28 1237.84 458.89 1233.05 458.99 C 1227.65 461.79 1223.84 466.95 1218.43 469.93 C 1217.94 469.95 1216.97 469.99 1216.48 470.01 C 1215.08 470.94 1213.70 471.89 1212.40 472.94 C 1211.45 472.97 1210.51 473.01 1209.59 473.05 C 1208.55 473.65 1207.53 474.25 1206.51 474.84 C 1203.25 476.35 1199.50 475.35 1196.33 476.88 C 1191.44 477.08 1186.55 477.07 1181.68 476.88 C 1179.17 475.31 1176.07 476.53 1173.44 475.36 C 1170.81 474.45 1168.21 473.48 1165.53 472.77 C 1147.79 465.17 1134.18 449.55 1127.73 431.51 C 1127.21 430.48 1126.70 429.46 1126.21 428.44 C 1125.97 427.07 1125.69 425.70 1125.37 424.37 C 1125.03 423.01 1124.62 421.67 1124.24 420.34 C 1124.07 419.44 1123.91 418.55 1123.77 417.66 C 1122.10 414.75 1123.95 411.15 1122.12 408.33 C 1122.41 401.71 1120.91 394.65 1122.89 388.32 C 1123.09 385.35 1122.64 382.30 1123.58 379.43 C 1123.97 378.41 1124.39 377.39 1124.83 376.39 C 1124.94 375.47 1125.07 374.56 1125.22 373.66 C 1125.73 372.34 1126.01 370.96 1126.20 369.56 C 1126.70 368.53 1127.21 367.51 1127.73 366.49 C 1135.04 344.90 1153.50 328.96 1174.53 321.27 C 1175.56 320.93 1176.60 320.56 1177.63 320.18 C 1178.54 320.06 1179.46 319.95 1180.39 319.84 C 1181.38 319.40 1182.40 318.98 1183.43 318.58 C 1185.65 317.86 1188.01 317.99 1190.33 317.85 C 1197.01 315.96 1204.37 317.39 1211.32 317.12 C 1213.82 318.65 1216.90 317.54 1219.57 318.58 C 1220.58 318.98 1221.59 319.40 1222.61 319.84 C 1223.51 319.95 1224.42 320.07 1225.36 320.19 C 1226.39 320.56 1227.43 320.90 1228.50 321.24 C 1229.67 321.87 1230.86 322.49 1232.05 323.14 C 1233.36 322.35 1234.70 321.58 1236.02 320.78 C 1236.03 299.32 1235.89 277.84 1236.09 256.38 M 1200.67 348.11 C 1196.90 349.98 1192.36 348.18 1188.52 350.19 C 1177.63 354.57 1169.61 363.31 1164.22 373.52 C 1163.76 375.18 1163.23 376.82 1162.81 378.50 C 1162.23 379.52 1161.66 380.55 1161.09 381.58 C 1160.99 382.50 1160.90 383.41 1160.82 384.33 C 1159.49 386.61 1160.53 389.44 1159.12 391.68 C 1158.92 396.55 1158.92 401.44 1159.12 406.32 C 1160.79 408.85 1159.23 412.10 1160.83 414.67 C 1160.90 415.59 1160.98 416.51 1161.07 417.44 C 1161.68 418.47 1162.30 419.51 1162.95 420.54 C 1162.96 421.04 1163.00 422.03 1163.01 422.53 C 1163.93 423.91 1164.88 425.28 1165.92 426.58 C 1165.96 427.06 1166.02 428.00 1166.06 428.47 C 1170.43 434.02 1175.00 439.60 1181.53 442.70 C 1182.55 443.07 1183.59 443.45 1184.64 443.85 C 1185.88 443.94 1187.14 444.01 1188.42 444.12 C 1189.77 444.80 1191.23 445.23 1192.61 445.91 C 1196.91 445.85 1201.36 446.57 1205.57 445.42 C 1206.57 445.01 1207.57 444.60 1208.58 444.18 C 1216.65 443.71 1222.50 436.82 1228.00 431.55 C 1228.00 431.03 1228.00 430.00 1228.00 429.48 C 1229.44 429.02 1230.19 427.74 1230.99 426.55 C 1231.01 426.06 1231.06 425.07 1231.09 424.58 C 1231.63 423.55 1232.19 422.52 1232.76 421.50 C 1233.09 420.45 1233.44 419.39 1233.82 418.35 C 1233.92 417.11 1234.03 415.88 1234.20 414.66 C 1234.95 413.09 1235.03 411.34 1235.25 409.65 C 1237.03 394.33 1235.46 378.50 1236.03 362.98 C 1236.76 357.94 1232.38 354.33 1228.52 352.02 C 1228.03 352.00 1227.04 351.96 1226.54 351.94 C 1225.50 351.31 1224.47 350.69 1223.45 350.07 C 1222.50 349.99 1221.58 349.91 1220.67 349.83 C 1216.60 348.04 1211.97 349.49 1207.67 348.89 C 1205.58 347.46 1203.00 348.08 1200.67 348.11 Z" />
<path fill="#000000" opacity="1.00" d=" M 1314.45 255.00 C 1326.24 254.97 1338.04 255.05 1349.83 254.96 C 1354.67 266.25 1350.68 279.68 1352.04 291.84 C 1344.62 296.30 1335.25 292.98 1327.00 294.00 C 1321.94 293.62 1316.23 295.35 1311.96 291.84 C 1312.05 280.37 1311.97 268.91 1312.00 257.45 C 1312.81 256.64 1313.62 255.82 1314.45 255.00 Z" />
<path fill="#000000" opacity="1.00" d=" M 490.68 269.13 C 494.64 269.24 498.94 268.14 502.67 269.84 C 504.22 269.95 505.79 270.04 507.36 270.16 C 509.35 270.98 511.40 271.68 513.50 272.22 C 514.52 272.77 515.55 273.33 516.57 273.91 C 517.04 273.95 517.98 274.04 518.45 274.09 C 528.61 280.19 537.87 288.77 541.25 300.50 C 541.79 301.54 542.33 302.56 542.90 303.59 C 542.98 304.50 543.08 305.42 543.19 306.34 C 544.19 308.18 543.99 310.31 544.18 312.34 C 545.50 315.52 545.50 319.47 544.19 322.66 C 544.05 323.88 543.93 325.11 543.80 326.34 C 541.98 335.28 537.92 343.93 531.51 350.53 C 530.82 351.16 530.16 351.82 529.53 352.51 C 524.97 357.05 519.26 360.08 513.47 362.75 C 512.42 363.07 511.38 363.42 510.36 363.80 C 509.45 363.93 508.55 364.08 507.66 364.23 C 506.07 364.93 504.34 365.05 502.65 365.25 C 498.44 366.48 493.53 366.52 489.34 365.23 C 488.44 365.07 487.55 364.91 486.66 364.76 C 483.92 363.87 480.94 363.92 478.44 362.32 C 466.13 357.77 456.12 347.62 451.24 335.47 C 450.67 333.40 449.98 331.37 449.18 329.39 C 449.05 328.13 448.93 326.89 448.81 325.65 C 447.45 320.51 447.45 314.47 448.82 309.34 C 448.81 306.53 449.11 303.71 450.87 301.41 C 450.92 300.94 451.03 300.00 451.08 299.52 C 451.69 298.50 452.31 297.47 452.93 296.45 C 452.97 295.98 453.05 295.03 453.09 294.56 C 459.28 284.93 467.69 276.43 478.53 272.23 C 480.18 271.77 481.81 271.20 483.44 270.65 C 485.77 269.70 488.46 270.42 490.68 269.13 M 488.52 297.18 C 470.42 303.55 470.53 331.54 488.59 337.90 C 489.50 337.99 490.42 338.08 491.34 338.18 C 494.20 339.48 497.79 339.48 500.66 338.18 C 501.57 338.08 502.49 337.99 503.42 337.91 C 510.55 334.97 516.89 328.70 517.24 320.64 C 518.42 318.40 518.28 315.67 517.33 313.38 C 516.17 307.02 511.97 301.40 506.46 298.10 C 505.99 298.04 505.07 297.93 504.61 297.88 C 499.91 294.74 493.65 295.70 488.52 297.18 Z" />
<path fill="#000000" opacity="1.00" d=" M 750.21 269.99 C 761.42 269.99 772.63 270.04 783.84 269.96 C 784.62 271.56 786.02 273.04 785.99 274.93 C 786.03 289.13 785.98 303.34 786.00 317.55 C 786.81 318.36 787.63 319.17 788.45 320.00 C 800.97 320.50 814.19 319.01 826.28 320.72 C 827.99 329.63 826.49 339.66 827.00 349.00 C 813.47 350.31 798.63 346.30 785.96 351.17 C 786.13 375.88 785.81 400.61 786.12 425.32 C 787.44 428.20 786.92 431.54 788.17 434.48 C 789.65 438.30 792.48 441.22 795.42 443.97 C 795.91 444.00 796.89 444.07 797.38 444.10 C 803.32 447.11 811.72 447.14 817.64 444.08 C 818.57 444.03 819.51 444.00 820.46 443.97 C 823.62 441.86 826.79 439.60 830.55 438.67 C 835.53 445.56 840.50 452.47 845.06 459.66 C 841.53 464.28 835.97 466.51 831.43 469.89 C 830.97 469.95 830.05 470.06 829.59 470.12 C 827.90 471.04 826.18 471.89 824.48 472.76 C 823.42 473.08 822.38 473.43 821.36 473.81 C 820.43 473.92 819.51 474.04 818.61 474.16 C 817.59 474.59 816.58 475.01 815.57 475.42 C 812.37 476.43 808.97 475.84 805.68 476.11 C 801.90 477.58 797.10 477.58 793.32 476.11 C 790.03 475.79 786.60 476.52 783.44 475.36 C 780.81 474.45 778.21 473.48 775.53 472.78 C 763.88 468.17 754.99 457.60 752.33 445.39 C 752.04 444.02 751.65 442.67 751.24 441.34 C 751.07 440.44 750.92 439.55 750.77 438.65 C 748.96 435.44 751.10 431.46 749.12 428.33 C 748.83 402.94 749.10 377.54 748.99 352.15 C 749.08 350.41 746.83 350.09 745.60 349.56 C 738.18 348.28 730.52 349.35 723.00 349.00 C 722.99 339.74 723.01 330.48 722.99 321.21 C 730.98 318.09 740.40 321.64 748.28 319.28 C 750.75 303.42 746.93 285.96 750.21 269.99 Z" />
<path fill="#000000" opacity="1.00" d=" M 1403.00 341.98 C 1428.54 310.27 1481.00 305.26 1511.67 332.28 C 1528.17 347.27 1534.22 369.81 1537.00 391.14 L 1537.00 405.84 C 1535.06 406.49 1533.08 407.10 1531.04 407.02 C 1495.07 406.95 1459.09 407.05 1423.12 406.97 C 1420.22 415.73 1426.01 424.87 1431.47 431.46 C 1432.54 432.42 1433.56 433.44 1434.54 434.53 C 1437.92 437.26 1441.33 440.26 1445.67 441.35 C 1446.09 441.73 1446.94 442.47 1447.37 442.84 C 1469.97 450.09 1496.88 445.16 1514.62 428.97 C 1521.87 435.30 1527.85 443.10 1534.11 450.44 C 1527.86 459.84 1517.08 464.64 1507.39 469.62 C 1487.62 477.37 1465.77 478.92 1444.96 475.03 C 1424.34 470.38 1405.40 457.46 1395.55 438.48 C 1379.82 408.51 1381.02 368.63 1403.00 341.98 M 1459.33 345.90 C 1456.33 346.22 1453.09 345.35 1450.33 346.83 C 1449.39 346.91 1448.47 346.99 1447.56 347.07 C 1446.51 347.69 1445.47 348.30 1444.45 348.93 C 1443.98 348.97 1443.05 349.06 1442.58 349.10 C 1438.40 352.02 1433.78 354.53 1430.49 358.52 C 1428.22 360.46 1427.52 363.68 1425.05 365.49 C 1425.02 365.98 1424.96 366.95 1424.93 367.43 C 1424.31 368.44 1423.73 369.46 1423.17 370.49 C 1422.29 373.09 1421.79 375.77 1421.94 378.52 C 1422.77 379.34 1423.61 380.16 1424.46 381.00 C 1448.49 381.00 1472.51 381.00 1496.54 381.00 C 1497.35 380.17 1498.18 379.35 1499.03 378.54 C 1499.18 375.45 1498.87 372.40 1497.83 369.50 C 1497.24 368.47 1496.66 367.45 1496.08 366.44 C 1496.04 365.97 1495.95 365.03 1495.91 364.56 C 1492.11 358.11 1486.89 352.89 1480.44 349.09 C 1479.97 349.05 1479.03 348.96 1478.56 348.92 C 1477.53 348.32 1476.51 347.74 1475.50 347.16 C 1472.03 345.82 1468.32 345.95 1464.68 345.89 C 1463.07 344.65 1460.90 344.64 1459.33 345.90 Z" />
<path fill="#000000" opacity="1.00" d=" M 1023.68 317.12 C 1029.22 316.92 1034.77 316.92 1040.32 317.12 C 1042.82 318.65 1045.90 317.55 1048.57 318.57 C 1049.58 318.98 1050.59 319.40 1051.61 319.84 C 1052.51 319.95 1053.43 320.06 1054.36 320.18 C 1055.38 320.56 1056.41 320.92 1057.47 321.25 C 1067.89 325.66 1076.22 333.97 1081.92 343.59 C 1081.94 344.07 1081.99 345.03 1082.01 345.52 C 1082.93 346.90 1083.87 348.27 1084.91 349.58 C 1084.97 350.50 1085.05 351.43 1085.16 352.35 C 1085.54 353.37 1085.92 354.40 1086.29 355.45 C 1088.35 358.38 1088.03 361.93 1088.13 365.32 C 1090.62 399.03 1087.50 433.72 1089.68 467.55 C 1089.14 469.93 1088.11 472.95 1085.03 472.03 C 1074.56 471.04 1062.65 473.87 1053.09 470.62 C 1052.45 437.59 1053.92 404.34 1052.36 371.44 C 1051.43 368.81 1050.45 366.19 1049.82 363.47 C 1045.68 354.82 1036.57 349.23 1027.33 348.13 C 1023.68 348.19 1019.76 347.22 1016.35 348.81 C 1015.09 348.94 1013.86 349.06 1012.64 349.18 C 1011.59 349.55 1010.55 349.90 1009.52 350.24 C 1000.54 354.02 993.72 361.08 989.05 369.50 C 989.02 369.99 988.95 370.96 988.92 371.45 C 988.32 372.45 987.73 373.47 987.16 374.50 C 986.35 377.05 985.86 379.66 985.80 382.34 C 983.93 411.14 985.53 440.52 985.00 469.55 C 984.17 470.35 983.35 471.17 982.55 472.00 C 971.75 471.97 960.95 472.05 950.16 471.98 C 948.66 472.04 947.69 470.35 947.99 469.00 C 948.01 419.74 948.01 370.48 947.99 321.21 C 958.30 318.50 969.38 320.72 980.00 319.99 C 985.02 319.78 981.71 326.04 983.88 328.67 C 983.99 330.78 984.00 332.89 984.02 335.00 C 985.52 335.00 987.04 335.00 988.56 335.00 C 993.61 328.81 1000.32 324.51 1007.53 321.22 C 1010.62 320.38 1013.67 319.35 1016.64 318.13 C 1018.98 317.90 1021.55 318.45 1023.68 317.12 Z" />
<path fill="#000000" opacity="1.00" d=" M 870.02 322.16 C 870.70 318.56 875.40 320.43 878.00 319.99 C 887.29 320.70 897.03 318.54 906.01 321.21 C 905.92 371.01 906.13 420.82 905.91 470.62 C 899.02 473.84 889.80 471.09 882.01 472.00 C 878.14 471.31 873.06 473.57 870.09 470.62 C 869.89 421.14 870.03 371.64 870.02 322.16 Z" />
<path fill="#000000" opacity="1.00" d=" M 1313.99 321.21 C 1322.96 318.53 1332.70 320.70 1341.99 319.99 C 1344.57 320.43 1349.29 318.56 1349.98 322.16 C 1350.03 372.10 1349.99 422.05 1350.00 472.00 C 1338.72 471.97 1327.43 472.04 1316.16 471.98 C 1314.65 472.04 1313.69 470.35 1313.99 469.00 C 1314.01 419.74 1314.01 370.48 1313.99 321.21 Z" />
<path fill="#000000" opacity="1.00" d=" M 334.34 332.77 C 339.85 331.40 346.05 331.65 351.63 332.65 C 352.99 332.96 354.34 333.33 355.66 333.80 C 356.57 333.90 357.49 334.00 358.41 334.10 C 359.43 334.66 360.46 335.21 361.50 335.75 C 372.81 339.35 380.87 348.76 386.91 358.55 C 386.96 359.02 387.05 359.96 387.09 360.43 C 387.66 361.45 388.23 362.47 388.79 363.50 C 389.23 365.17 389.79 366.80 390.33 368.44 C 391.57 371.06 390.29 374.18 391.89 376.68 C 392.04 379.22 392.04 381.78 391.89 384.33 C 390.35 386.83 391.44 389.90 390.44 392.58 C 390.00 393.60 389.56 394.62 389.10 395.63 C 389.05 396.62 389.02 397.61 388.99 398.61 C 388.49 399.06 387.50 399.95 387.01 400.39 C 386.99 400.89 386.95 401.89 386.94 402.39 C 380.72 413.06 371.73 422.69 359.56 426.31 C 357.43 427.53 355.09 428.17 352.64 428.24 C 347.21 429.88 341.30 428.70 335.68 428.88 C 320.11 426.62 306.48 416.30 299.11 402.42 C 299.06 401.96 298.95 401.03 298.90 400.57 C 298.33 399.55 297.77 398.52 297.22 397.50 C 296.68 395.39 295.99 393.33 295.12 391.35 C 294.81 388.67 295.61 385.73 294.10 383.32 C 294.00 381.44 294.00 379.55 294.10 377.68 C 295.91 374.89 294.23 371.37 295.67 368.44 C 296.21 366.80 296.76 365.17 297.21 363.50 C 297.76 362.47 298.33 361.44 298.91 360.43 C 298.95 359.96 299.04 359.02 299.09 358.55 C 304.09 350.35 310.31 343.11 318.57 338.04 C 319.08 338.03 320.10 338.01 320.61 338.00 C 321.05 337.50 321.94 336.50 322.38 336.01 C 322.89 335.99 323.91 335.96 324.42 335.94 C 325.44 335.34 326.48 334.75 327.52 334.17 C 328.93 334.02 330.33 333.76 331.66 333.24 C 332.55 333.07 333.44 332.92 334.34 332.77 M 337.33 359.82 C 336.42 359.91 335.51 360.01 334.60 360.10 C 330.15 362.82 325.70 365.66 323.23 370.48 C 322.68 372.58 322.00 374.65 321.12 376.64 C 321.04 380.68 320.13 385.17 322.88 388.61 C 322.93 389.07 323.04 390.00 323.09 390.46 C 327.04 396.76 333.50 402.48 341.35 402.17 C 342.65 403.25 344.29 403.18 345.64 402.23 C 353.10 401.91 359.11 396.52 362.91 390.46 C 362.96 390.00 363.07 389.07 363.12 388.61 C 365.82 384.83 365.45 379.71 364.33 375.44 C 363.78 373.79 363.22 372.15 362.78 370.48 C 360.30 365.67 355.85 362.82 351.40 360.10 C 350.48 360.01 349.57 359.91 348.67 359.82 C 345.15 358.48 340.85 358.48 337.33 359.82 Z" />
<path fill="#000000" opacity="1.00" d=" M 540.39 433.98 C 541.77 433.98 543.15 433.99 544.55 434.00 C 546.02 435.53 547.53 437.03 549.08 438.49 C 550.75 445.56 541.88 449.88 537.00 444.85 C 536.96 444.30 536.89 443.21 536.85 442.66 C 534.36 439.38 538.37 436.26 540.39 433.98 Z" />
<path fill="#000000" opacity="1.00" d=" M 510.82 445.66 C 508.05 441.59 514.58 435.05 518.65 437.81 C 519.12 437.88 520.04 438.00 520.50 438.07 C 521.21 439.31 522.03 440.50 522.96 441.62 C 522.98 443.25 522.99 444.89 523.01 446.54 C 521.83 447.68 520.68 448.83 519.54 450.01 C 517.89 449.99 516.25 449.98 514.62 449.96 C 513.50 449.04 512.31 448.21 511.07 447.50 C 511.00 447.04 510.88 446.12 510.82 445.66 Z" />
<path fill="#000000" opacity="1.00" d=" M 536.50 468.19 C 538.10 467.78 539.68 467.26 541.28 466.80 C 540.68 469.76 539.60 472.59 538.79 475.50 C 538.22 476.53 537.64 477.56 537.07 478.59 C 537.05 479.10 537.01 480.11 536.99 480.62 C 536.49 481.06 535.50 481.95 535.01 482.39 C 534.99 482.89 534.96 483.89 534.94 484.39 C 524.75 503.22 507.97 517.49 488.40 525.91 C 487.47 525.96 486.54 526.03 485.62 526.10 C 483.54 527.58 481.12 528.23 478.58 528.18 C 477.58 528.60 476.58 529.01 475.57 529.42 C 472.70 530.35 469.64 529.90 466.68 530.11 C 462.33 531.99 457.30 530.66 452.67 530.88 C 449.53 528.90 445.55 531.03 442.34 529.23 C 441.44 529.07 440.55 528.91 439.66 528.76 C 436.87 527.82 433.77 528.02 431.36 526.09 C 430.42 526.04 429.49 525.99 428.56 525.95 C 427.51 525.31 426.47 524.67 425.44 524.04 C 424.92 524.03 423.89 524.01 423.38 524.00 C 422.94 523.50 422.06 522.50 421.62 522.01 C 421.11 521.99 420.11 521.96 419.60 521.94 C 418.39 520.91 417.06 520.01 415.63 519.32 C 416.51 517.81 418.01 516.89 419.48 516.03 C 419.97 516.00 420.94 515.94 421.43 515.91 C 422.44 515.34 423.46 514.78 424.49 514.25 C 428.40 513.35 431.59 510.64 435.51 509.75 C 436.52 509.21 437.54 508.66 438.56 508.10 C 439.04 508.06 439.99 507.97 440.47 507.92 C 441.49 507.30 442.50 506.69 443.53 506.08 C 444.01 506.03 444.96 505.94 445.44 505.90 C 446.45 505.33 447.46 504.78 448.49 504.25 C 450.30 503.84 451.98 503.03 453.61 502.15 C 454.08 502.09 455.01 501.97 455.48 501.91 C 456.50 501.29 457.53 500.66 458.56 500.04 C 459.08 500.03 460.11 500.01 460.63 500.00 C 461.06 499.50 461.94 498.50 462.38 498.00 C 462.89 497.99 463.92 497.97 464.44 497.96 C 465.46 497.32 466.49 496.69 467.53 496.06 C 468.01 496.03 468.98 495.97 469.47 495.93 C 470.48 495.31 471.50 494.69 472.53 494.07 C 473.01 494.03 473.97 493.95 474.45 493.91 C 475.45 493.32 476.47 492.76 477.50 492.20 C 480.19 491.50 482.79 490.52 485.48 489.78 C 489.35 487.53 493.60 486.11 497.61 484.16 C 498.08 484.10 499.01 483.97 499.48 483.91 C 500.49 483.29 501.51 482.68 502.53 482.07 C 503.02 482.04 503.99 481.97 504.47 481.93 C 505.48 481.30 506.50 480.68 507.53 480.07 C 508.01 480.03 508.98 479.97 509.47 479.93 C 510.48 479.31 511.50 478.69 512.53 478.08 C 513.00 478.03 513.96 477.94 514.44 477.90 C 515.45 477.33 516.46 476.78 517.49 476.25 C 521.40 475.35 524.59 472.65 528.50 471.75 C 529.52 471.21 530.54 470.66 531.56 470.11 C 532.03 470.06 532.98 469.95 533.45 469.90 C 534.46 469.32 535.47 468.75 536.50 468.19 Z" />
</g>
</svg>
